<?xml version="1.0" encoding="utf-8"?>
<!-- Generator: Adobe Illustrator 23.0.2, SVG Export Plug-In . SVG Version: 6.00 Build 0)  -->
<svg version="1.1" xmlns="http://www.w3.org/2000/svg" xmlns:xlink="http://www.w3.org/1999/xlink" x="0px" y="0px"
	 viewBox="0 0 1107.3 1252" style="enable-background:new 0 0 1107.3 1252;" xml:space="preserve">
<style type="text/css">
	.st0{display:none;}
	.st1{fill:#2B0F86;}
	.st2{fill:url(#SVGID_1_);}
	.st3{fill:url(#SVGID_2_);}
	.st4{fill:#FFFEFF;}
	.st5{fill:#D78BD8;}
	.st6{fill:#243167;}
	.st7{fill:#4F5DA9;}
	.st8{opacity:0.51;fill: #fff<!-- #644FD2 -->;}
	.st9{fill:#A65FE5;}
	.st10{fill:none;stroke:#644FD2;stroke-width:3;stroke-miterlimit:10;}
	.st11{fill:#FFFFFF;}
</style>
<g id="bg">
</g>
<g id="img" class="st0">
	
		<image style="display:inline;overflow:visible;" width="400" height="300" xlink:href="../Downloads/550b0f6359b19108f0b527bc0efcc241.jpg"  transform="matrix(2.9721 0 0 2.9721 -49.0599 355.4343)">
	</image>
</g>
<g id="neck">
	<path class="st1" d="M356.9,1132.3c0,0-8.7,103.7-5.3,114.7s391.5,0,391.5,0l-6.9-108.9L356.9,1132.3z"/>
	
		<linearGradient id="SVGID_1_" gradientUnits="userSpaceOnUse" x1="345.2058" y1="1116.2183" x2="775.9906" y2="927.1545" gradientTransform="matrix(8.192182e-02 -0.9153 1.4665 0.1313 -999.6775 1379.2703)">
		<stop  offset="0" style="stop-color:#634CC5"/>
		<stop  offset="1" style="stop-color:#71E4D8"/>
	</linearGradient>
	<path class="st2" d="M564.7,775.4c138.1,12.4,241,123.1,229.9,247.2s-132.1,214.8-270.1,202.5c-138.1-12.4-241-123.1-229.9-247.2
		C305.7,853.7,426.6,763,564.7,775.4z"/>
</g>
<g id="face">
	<linearGradient id="SVGID_2_" gradientUnits="userSpaceOnUse" x1="546.9707" y1="1225.205" x2="546.9707" y2="773.2367">
		<stop  offset="0" style="stop-color:#634CC5"/>
		<stop  offset="1" style="stop-color:#71E4D8"/>
	</linearGradient>
	<path class="st3" d="M293.6,858.4V989c0,0,3.7,53,23.4,90c19.7,37,64.1,83.8,64.1,83.8s53,37,64.1,41.9
		c11.1,4.9,64.1,17.3,70.3,18.5c6.2,1.2,54.2,3.7,57.9,0s23.4,1.2,70.3-18.5s90-66.6,90-66.6l40.7-56.7l19.7-48.1l6.2-85.1l-6.2-90
		H600.6l-1.2-43.1c0,0-1.2-32.1-52.4-41.9c0,0-27.3-1.7-35.1,11.8c0,0-13.5,14.9-21.3,25.6l-1.4,63.2l-176.9-2.1
		C312.3,871.8,301.3,864.8,293.6,858.4z"/>
</g>
<g id="mouth">
	<path class="st4" d="M432.9,923.2h241.5c0,0,2,70.3-51,96.7s-79.5,22.5-116.2,15.6C470.6,1028.7,441,988.6,432.9,923.2z"/>
	<ellipse class="st4" cx="553.1" cy="983.9" rx="120.3" ry="60.8"/>
</g>
<g id="cheeks">
	<circle class="st5" cx="390.1" cy="935.1" r="18.2"/>
	<circle class="st5" cx="700.2" cy="935.1" r="18.2"/>
</g>
<g id="glasses_x5F_part1">
	<path class="st6" d="M249.4,688.8l3.9,5.7l5.2,20.5l15.7,63.5l19.8,79.6c0,0,9.3,13.4,25,14.9c15.7,1.5,169.9,0,169.9,0l1.5-57.5
		c0,0,9-24.3,29.5-38.1c20.5-13.8,53.8,1.5,53.8,1.5s17.2,11.5,23.5,22.4c6.3,10.9,6,72.4,6,72.4h168.4c0,0,21.7-6.6,27.2-15.5
		c5.4-8.8,9.5-11.5,9.5-11.5V829l31.9-140.2c0,0-6.8,20-38.7,36.3l-131.7,2H549.6h-78.8h-91l-78.8-0.7
		C301.1,726.4,270.4,719.7,249.4,688.8z"/>
	<g id="glasses_x5F_part11">
		<circle class="st7" cx="318.4" cy="848.5" r="7.5"/>
		<circle class="st7" cx="774.2" cy="848.5" r="7.5"/>
		<rect x="345.8" y="844.5" class="st7" width="94.3" height="8.6"/>
		<rect x="657" y="844.5" class="st7" width="94.3" height="8.6"/>
	</g>
</g>
<g id="glasses_x5F_part2">
	<path id="light" class="st8" d="M3.1,135.1l60,228.1c53,93.3,114.2,187.1,224.4,187.1h535.1c99.8-48.1,163.6-100.1,224.3-186.6
		l57.4-257.5c25.9-140.2-117.1-98-259.7-98L266,0C123.8,0-22.2-5.4,2.8,134C2.9,134.4,3,134.8,3.1,135.1z"/>
	<path id="navy_x5F_rec" class="st6" d="M789.8,746H291.7c-45.7,0-82.7-37-82.7-82.7v-57.9c0-45.7,37-82.7,82.7-82.7h498.1
		c45.7,0,82.7,37,82.7,82.7v57.9C872.5,708.9,835.5,746,789.8,746z"/>
	<path id="purple_x5F_rec" class="st9" d="M757.6,711.6H332.1c-45.7,0-82.7-37-82.7-82.7v-23.6c0-45.7,37-82.7,82.7-82.7h425.5
		c45.7,0,82.7,37,82.7,82.7v23.6C840.3,674.6,803.2,711.6,757.6,711.6z"/>
</g>
<g id="left_x5F_headphone_1_">
	<g id="left_x5F_headhone">
		<g id="left_x5F_headphone">
			<path class="st6" d="M242.7,681.8v21.6c0,0-6.1-4.4-6.1,63.2c0,0-8.7-5.5-21.8,12c-13.1,17.4,0,232.3,0,232.3s11,19.6,27.9-9.8
				c0,0-2.7,67.1,40.8,64.3c0,0,24.2-1.3,32.8-20.8s1.9-167.8-24.7-165.6c-26.6,2.2-48,19.4-48.4,70.8c-0.5,51.3-4.4,41.3-4.4,41.3
				l8.5-228.8l5.3-74.6L242.7,681.8z"/>
			<path class="st6" d="M243,682.2c0.1,7.1,0.3,14.1,0.2,21.2l-0.8,0.4c0.1,0.1,0.1,0,0,0.1c-0.1,0-0.2,0.1-0.2,0.2
				c-0.2,0.2-0.3,0.4-0.5,0.7c-0.3,0.5-0.5,1.2-0.7,1.8c-0.4,1.2-0.7,2.6-0.9,3.9c-0.5,2.6-0.8,5.3-1.1,7.9
				c-0.6,5.3-0.9,10.7-1.2,16.1c-0.5,10.7-0.6,21.5-0.6,32.2l0,0l0,0.7l-0.8-0.3c-1.1-0.5-2.4-0.6-3.7-0.5c-0.6,0-1.3,0.2-1.9,0.3
				c-0.6,0.2-1.2,0.4-1.8,0.7c-2.3,1-4.4,2.6-6.3,4.4c-1.8,1.9-3.5,3.8-5,6l-1.1,1.6c-0.2,0.3-0.3,0.5-0.4,0.7
				c-0.1,0.1-0.1,0.2-0.2,0.3l-0.1,0.4c-0.4,1-0.7,2.3-0.9,3.5c-0.9,5.1-1.1,10.4-1.3,15.8c-0.1,5.3-0.1,10.7,0,16.1
				c0.5,21.5,1.9,43.1,3.6,64.6c1.7,21.5,3.7,43.1,5.8,64.6c2.1,21.5,4.4,43,6.9,64.4l-1.9-6.5l0,0c0-0.1-0.1-0.2-0.2-0.2l-0.1,0
				c0,0-0.1-0.1-0.1-0.1c0,0-0.1,0-0.1,0c-0.1,0-0.1,0.1-0.2,0.1c-0.1,0.1-0.2,0.2-0.3,0.4l-0.5,0.8c-0.3,0.5-0.7,1-1.2,1.4
				c-0.5,0.5-0.9,1.1-0.7,1.7c0.2,0.6,1,1,2,1.1c1,0.1,2.3-0.1,3.6-0.6l1-0.3l1-0.4c0.7-0.3,1.4-0.6,2-1c2.7-1.5,5.4-3.4,8-5.5l0,0
				l0.7-1.2l0,1.4c0,4.6,0.2,9.1,0.7,13.7c0.5,4.5,1.2,9.1,2.3,13.5c1,4.4,2.4,8.8,4.2,13c1.8,4.2,4,8.1,6.8,11.6
				c2.8,3.5,6.2,6.4,10.2,8.3c4,1.9,8.3,2.8,12.8,2.9l3.3-0.1c1-0.1,2.2-0.2,3.3-0.4c2.2-0.4,4.4-0.9,6.5-1.6
				c4.2-1.4,8.2-3.3,11.8-5.9c3.5-2.6,6.4-5.9,8.5-9.7c0.5-0.9,1-1.9,1.4-2.9c0.4-0.9,0.6-2,0.8-3c0.4-2.1,0.8-4.4,1-6.6
				c0.9-9,1-18.1,0.9-27.2c-0.2-18.3-1.5-36.5-3.6-54.7c-1.1-9.1-2.4-18.1-4.1-27c-1.7-8.9-3.7-17.8-6.7-26.1
				c-0.7-2.1-1.6-4.1-2.5-6c-0.9-2-1.9-3.8-3-5.4c-1.1-1.6-2.4-3-3.5-3.7c-0.6-0.3-1.1-0.5-1.5-0.5c-0.1-0.1-0.2,0-0.3,0l-0.2,0
				c0,0,0,0-0.1,0l-0.2,0l-1.6,0.2c-8.5,1-16.6,4-22.9,9.3c-1.6,1.3-3,2.8-4.4,4.3c-1.3,1.6-2.6,3.2-3.7,5
				c-2.3,3.5-4.1,7.3-5.5,11.4c-2.8,8.1-4.2,16.8-4.8,25.6c-0.2,2.2-0.2,4.4-0.3,6.6l0,6.8c0,4.6,0,9.2-0.1,13.9
				c-0.1,4.6-0.2,9.3-0.6,14c-0.2,2.4-0.4,4.8-0.8,7.3c-0.2,1.3-0.4,2.5-0.9,4.1c-0.1,0.2-0.1,0.4-0.2,0.6l-0.3,0.7
				c-0.1,0.2-0.3,0.6-0.4,0.9c-0.1,0.1-0.2,0.4-0.3,0.6c-0.2,0.2-0.2,0.4-0.5,0.7c-0.3,0.3-0.6,0.7-0.9,0.9
				c-0.1,0.1-0.5,0.4-0.8,0.6c-0.3,0.2-0.6,0.4-1,0.5c-1,0.4-2.1,0.6-3.1,0.4c-0.5-0.1-1.1-0.2-1.5-0.4c-0.4-0.2-0.7-0.3-1.1-0.6
				c-0.4-0.2-0.5-0.4-0.7-0.6c-0.2-0.2-0.4-0.4-0.5-0.5c-0.3-0.3-0.5-0.6-0.7-0.8c-0.4-0.5-0.5-0.9-0.8-1.4l-0.1-0.1l-0.4-2.3
				c-0.9-3.2-1.6-6.4-2.2-9.6c-0.6-3.2-1.1-6.4-1.6-9.6c-0.9-6.4-1.5-12.7-1.9-19.1c-0.9-12.7-0.9-25.4-0.4-38.1
				c0.4-12.7,1-25.3,1.9-38c0.9-12.6,2-25.3,3.3-37.9l3.9-37.8c0.6-6.3,1.3-12.6,1.8-18.9l0.8-9.5c0.3-3.2,0.6-6.3,0.7-9.5
				c4.1-25.2,8.5-50.3,12.8-75.3l0,0l0.2,0.5C249.2,686.3,246.2,684.3,243,682.2z M242.5,681.4c3.4,1.9,7,3.9,10.5,5.9l0.3,0.2
				l0,0.3l0,0l2.1,76.1c-0.1,3.2,0,6.3,0,9.5l0.1,9.5c0.1,6.3,0.2,12.7,0.4,19l1,38c0.3,12.7,0.6,25.3,0.5,38
				c0,12.7-0.4,25.3-0.9,37.9c-0.5,12.6-1.5,25.2-3.3,37.8c-0.9,6.3-2,12.6-3.4,18.8c-0.7,3.1-1.4,6.3-2.3,9.4
				c-0.8,3.1-1.7,6.3-2.9,9.4l-0.4-2.3l0-0.1c-0.1-0.3-0.2-0.4-0.3-0.7c-0.1-0.1-0.2-0.3-0.4-0.5c-0.1-0.1-0.3-0.3-0.4-0.4
				c-0.2-0.2-0.2-0.2-0.6-0.4c-0.3-0.2-0.6-0.3-0.9-0.5c-0.3-0.1-0.9-0.3-1.3-0.3c-0.5-0.1-0.9-0.1-1.4,0c-0.5,0.1-0.9,0.2-1.3,0.4
				c-0.3,0.1-0.5,0.2-0.8,0.4c-0.2,0.1-0.6,0.4-0.6,0.5c-0.2,0.2-0.4,0.4-0.6,0.6c-0.1,0.2-0.2,0.2-0.2,0.3
				c-0.1,0.1-0.1,0.2-0.1,0.2c0,0-0.1,0.1-0.1,0.1l0.1-0.3c0.2-0.6,0.4-1.6,0.5-2.6c0.3-2,0.5-4.2,0.7-6.4c0.4-4.4,0.6-8.9,0.8-13.5
				c0.2-4.5,0.3-9.1,0.5-13.7l0.2-7c0.1-2.4,0.3-4.7,0.5-7.1c0.8-9.5,2.6-19,6-28.2c1.7-4.6,4-9.1,6.8-13.2c1.4-2.1,3-4.1,4.7-5.9
				c1.7-1.9,3.6-3.6,5.6-5.2c4-3.1,8.5-5.6,13.2-7.3c2.4-0.9,4.8-1.6,7.2-2.1c2.4-0.5,4.9-0.9,7.3-1.1l1.8-0.2l0.2,0l0.3,0l0.7,0
				c0.5,0,0.9,0,1.4,0.1c1.8,0.2,3.5,1,4.9,1.8c2.7,1.8,4.4,4,5.9,6.2c1.4,2.2,2.6,4.4,3.5,6.7c1,2.2,1.8,4.5,2.5,6.8
				c3,9.1,4.8,18.2,6.3,27.4c1.5,9.2,2.6,18.4,3.4,27.6c1.7,18.4,2.4,36.9,2.2,55.3c-0.2,9.2-0.5,18.5-1.7,27.7
				c-0.3,2.3-0.7,4.6-1.2,7c-0.3,1.2-0.6,2.4-1.1,3.6c-0.5,1.2-1,2.2-1.7,3.3c-2.4,4.2-5.9,7.9-9.8,10.6c-3.9,2.8-8.3,4.8-12.9,6.1
				c-2.3,0.7-4.6,1.2-6.9,1.5c-1.2,0.2-2.3,0.3-3.6,0.4l-3.6,0c-4.8-0.2-9.5-1.3-13.8-3.5c-4.3-2.2-7.9-5.5-10.8-9.2
				c-2.9-3.7-5.1-7.9-6.8-12.2c-1.7-4.3-3-8.8-3.9-13.3c-0.9-4.5-1.5-9.1-1.9-13.7c-0.4-4.6-0.5-9.2-0.4-13.8l0.7,0.2l0,0
				c-0.5,3.3-1.2,6.7-2.3,10.1c-0.3,0.9-0.6,1.7-1,2.6l-0.6,1.3l-0.7,1.3c-0.9,1.8-2,3.5-3.6,5.3c-1.6,1.7-3.7,3.5-6.6,4.7
				c-2.9,1.2-6.5,1.7-10,1.2c-3.5-0.5-6.6-1.8-9.3-3.3c-1.3-0.8-2.6-1.6-3.7-2.5c-0.6-0.5-1.2-0.9-1.7-1.5c-0.3-0.3-0.6-0.5-0.9-0.8
				l-0.5-0.5c-0.1-0.1-0.2-0.2-0.3-0.3l-0.1-0.2c0-0.1-0.2-0.2-0.2-0.3l0,0l-1.9-3.4l0-3.1c-0.1-21.8,0.1-43.5,0.4-65.3
				c0.3-21.7,0.8-43.5,1.5-65.2c0.8-21.7,1.8-43.5,3.8-65.2c0.5-5.4,1.1-10.9,1.9-16.3c0.8-5.4,1.6-10.9,3.3-16.4
				c0.5-1.4,0.9-2.7,1.6-4.2l0.3-0.5c0.1-0.2,0.2-0.4,0.4-0.5c0.2-0.4,0.5-0.8,0.7-1l1.4-1.6c1.8-2.1,3.9-4,6.1-5.8
				c2.2-1.7,4.7-3.2,7.5-4.1c0.7-0.2,1.4-0.3,2.1-0.5c0.7-0.1,1.4-0.2,2.2-0.1c1.4,0.1,2.9,0.3,4.2,1.1l-0.7,0.4l0,0
				c0-10.8,0.1-21.5,0.6-32.3c0.3-5.4,0.6-10.8,1.1-16.1c0.3-2.7,0.6-5.4,1.1-8c0.3-1.3,0.5-2.7,1-4c0.2-0.7,0.4-1.3,0.8-1.9
				c0.2-0.3,0.4-0.6,0.6-0.9c0.1-0.1,0.3-0.3,0.6-0.4c0.2-0.1,0.5-0.2,1,0l-0.8,0.4C242.2,696.1,242.3,688.6,242.5,681.4z"/>
		</g>
		<g id="lines">
			<line class="st10" x1="243.6" y1="784.7" x2="243.6" y2="884.1"/>
			<rect x="246.6" y="908.4" class="st10" width="19.3" height="89.7"/>
			<path class="st10" d="M272.4,887.7c0,0,12.6-10.3,11.4,7.4s5.9,159.7,0.1,161.4s-13.5,4.7-25.2-8.6
				c-11.7-13.3-15.9-46.9-15.9-46.9l-11.3-3.9c0,0-2,28-6.7,18.9c-4.7-9.2,0-214.8,0-214.8"/>
		</g>
	</g>
</g>
<g id="right_x5F_headphone">
	<g id="left_x5F_headhone_1_">
		<g id="left_x5F_headphone_4_">
			<path class="st6" d="M843.9,674.4V696c0,0,6.1-4.4,6.1,63.2c0,0,8.7-5.5,21.8,12s0,232.3,0,232.3s-11,19.6-27.9-9.8
				c0,0,2.7,67.1-40.8,64.3c0,0-24.2-1.3-32.8-20.8s-1.9-167.8,24.7-165.6c26.6,2.2,48,19.4,48.4,70.8c0.5,51.3,4.4,41.3,4.4,41.3
				l-8.5-228.8l-5.3-74.6L843.9,674.4z"/>
			<path class="st6" d="M844.1,673.9c0.1,7.3,0.3,14.7,0.2,22l-0.8-0.4c0.4-0.2,0.7-0.1,1,0c0.2,0.1,0.4,0.3,0.6,0.4
				c0.3,0.3,0.5,0.6,0.6,0.9c0.3,0.6,0.6,1.3,0.8,1.9c0.4,1.3,0.7,2.6,1,4c0.5,2.7,0.9,5.3,1.1,8c0.6,5.4,0.9,10.7,1.1,16.1
				c0.5,10.8,0.6,21.5,0.6,32.3l0,0l-0.7-0.4c1.3-0.8,2.8-1,4.2-1.1c0.7,0,1.4,0.1,2.2,0.1c0.7,0.2,1.4,0.3,2.1,0.5
				c2.7,0.9,5.2,2.4,7.5,4.1c2.2,1.8,4.3,3.7,6.1,5.8l1.4,1.6c0.2,0.2,0.5,0.6,0.7,1c0.1,0.2,0.3,0.4,0.4,0.5l0.3,0.5
				c0.8,1.4,1.2,2.8,1.6,4.2c1.6,5.5,2.5,10.9,3.3,16.4c0.8,5.4,1.3,10.9,1.9,16.3c2,21.8,3,43.5,3.8,65.2
				c0.8,21.7,1.2,43.5,1.5,65.2c0.3,21.8,0.4,43.4,0.4,65.3l0,3.1l-1.9,3.4l0,0c-0.1,0.1-0.2,0.3-0.2,0.3l-0.1,0.2
				c-0.1,0.1-0.2,0.2-0.3,0.3l-0.5,0.5c-0.3,0.3-0.6,0.6-0.9,0.8c-0.6,0.5-1.1,1-1.7,1.5c-1.2,0.9-2.4,1.8-3.7,2.5
				c-2.7,1.5-5.8,2.8-9.3,3.3c-3.5,0.5-7.1,0-10-1.2c-2.9-1.2-5-2.9-6.6-4.7c-1.6-1.7-2.8-3.5-3.6-5.3l-0.7-1.3l-0.6-1.3
				c-0.4-0.9-0.7-1.7-1-2.6c-1.1-3.4-1.8-6.8-2.3-10.1l0,0l0.7-0.2c0.2,4.6,0,9.2-0.4,13.8c-0.4,4.6-1,9.2-1.9,13.7
				c-0.9,4.5-2.2,9-3.9,13.3c-1.7,4.3-3.9,8.5-6.8,12.2c-2.9,3.7-6.5,7-10.8,9.2c-4.3,2.2-9,3.3-13.8,3.5l-3.6,0
				c-1.2,0-2.4-0.2-3.6-0.4c-2.3-0.4-4.7-0.9-6.9-1.5c-4.5-1.3-8.9-3.3-12.9-6.1c-3.9-2.8-7.4-6.4-9.8-10.6
				c-0.6-1.1-1.1-2.1-1.7-3.3c-0.5-1.2-0.8-2.4-1.1-3.6c-0.6-2.3-0.9-4.7-1.2-7c-1.2-9.3-1.5-18.5-1.7-27.7
				c-0.2-18.5,0.5-36.9,2.2-55.3c0.8-9.2,1.9-18.4,3.4-27.6c1.5-9.2,3.3-18.3,6.3-27.4c0.7-2.3,1.6-4.5,2.5-6.8
				c1-2.2,2.1-4.5,3.5-6.7c1.5-2.2,3.2-4.4,5.9-6.2c1.4-0.9,3-1.6,4.9-1.8c0.4-0.1,0.9-0.1,1.4-0.1l0.7,0l0.3,0l0.2,0l1.8,0.2
				c2.4,0.3,4.9,0.6,7.3,1.1c2.4,0.5,4.8,1.2,7.2,2.1c4.7,1.7,9.2,4.2,13.2,7.3c2,1.6,3.9,3.3,5.6,5.2c1.7,1.9,3.3,3.9,4.7,5.9
				c2.8,4.2,5.1,8.6,6.8,13.2c3.5,9.2,5.2,18.7,6,28.2c0.2,2.4,0.4,4.7,0.5,7.1l0.2,7c0.1,4.6,0.3,9.1,0.5,13.7
				c0.2,4.5,0.5,9.1,0.8,13.5c0.2,2.2,0.4,4.4,0.7,6.4c0.1,1,0.3,2,0.5,2.6l0.1,0.3c0,0,0-0.1-0.1-0.1c0,0-0.1-0.1-0.1-0.2
				c-0.1-0.1-0.1-0.1-0.2-0.3c-0.2-0.2-0.4-0.4-0.6-0.6c-0.1-0.1-0.4-0.4-0.6-0.5c-0.3-0.2-0.5-0.3-0.8-0.4
				c-0.4-0.2-0.9-0.3-1.3-0.4c-0.5-0.1-0.9-0.1-1.4,0c-0.4,0-1,0.2-1.3,0.3c-0.3,0.1-0.6,0.3-0.9,0.5c-0.3,0.2-0.4,0.3-0.6,0.4
				c-0.1,0.1-0.3,0.3-0.4,0.4c-0.2,0.2-0.3,0.4-0.4,0.5c-0.2,0.3-0.2,0.4-0.3,0.7l0,0.1l-0.4,2.3c-1.1-3.1-2-6.3-2.9-9.4
				c-0.8-3.1-1.6-6.3-2.3-9.4c-1.4-6.3-2.5-12.6-3.4-18.8c-1.8-12.6-2.8-25.2-3.3-37.8c-0.5-12.6-0.9-25.3-0.9-37.9
				c-0.1-12.7,0.2-25.3,0.5-38l1-38c0.1-6.3,0.3-12.7,0.4-19l0.1-9.5c0-3.2,0.1-6.3,0-9.5l2.1-76.1l0,0l0-0.3l0.3-0.2
				C837.1,677.8,840.7,675.8,844.1,673.9z M843.6,674.8c-3.2,2.1-6.3,4-9.5,5.9l0.2-0.5l0,0c4.3,25.1,8.7,50.2,12.8,75.3
				c0.1,3.2,0.4,6.3,0.7,9.5l0.8,9.5c0.5,6.3,1.2,12.6,1.8,18.9l3.9,37.8c1.3,12.6,2.4,25.2,3.3,37.9c0.9,12.6,1.5,25.3,1.9,38
				c0.5,12.7,0.4,25.3-0.4,38.1c-0.4,6.4-1.1,12.7-1.9,19.1c-0.4,3.2-1,6.4-1.6,9.6c-0.6,3.2-1.3,6.4-2.2,9.6l-0.4,2.3l-0.1,0.1
				c-0.2,0.6-0.4,0.9-0.8,1.4c-0.1,0.2-0.4,0.6-0.7,0.8c-0.1,0.1-0.4,0.4-0.5,0.5c-0.2,0.2-0.3,0.3-0.7,0.6
				c-0.3,0.2-0.7,0.4-1.1,0.6c-0.4,0.2-1,0.3-1.5,0.4c-1.1,0.2-2.2,0-3.1-0.4c-0.3-0.1-0.7-0.3-1-0.5c-0.3-0.2-0.7-0.5-0.8-0.6
				c-0.3-0.3-0.6-0.6-0.9-0.9c-0.2-0.3-0.3-0.4-0.5-0.7c-0.1-0.2-0.3-0.5-0.3-0.6c-0.1-0.3-0.3-0.6-0.4-0.9l-0.3-0.7
				c-0.1-0.2-0.1-0.4-0.2-0.6c-0.5-1.6-0.7-2.8-0.9-4.1c-0.4-2.5-0.6-4.9-0.8-7.3c-0.3-4.7-0.5-9.4-0.6-14
				c-0.1-4.6-0.1-9.3-0.1-13.9l0-6.8c-0.1-2.2-0.1-4.4-0.3-6.6c-0.6-8.8-1.9-17.5-4.8-25.6c-1.4-4-3.2-7.9-5.5-11.4
				c-1.1-1.8-2.4-3.4-3.7-5c-1.4-1.5-2.8-3-4.4-4.3c-6.3-5.3-14.4-8.2-22.9-9.3l-1.6-0.2l-0.2,0c-0.1,0-0.1,0-0.1,0l-0.2,0
				c-0.1,0-0.2,0-0.3,0c-0.4,0-1,0.2-1.5,0.5c-1.2,0.7-2.4,2.1-3.5,3.7c-1.1,1.6-2.1,3.5-3,5.4c-0.9,1.9-1.7,4-2.5,6
				c-3,8.3-5,17.2-6.7,26.1c-1.7,8.9-3,17.9-4.1,27c-2.1,18.1-3.3,36.4-3.6,54.7c-0.1,9.1,0,18.3,0.9,27.2c0.2,2.2,0.5,4.5,1,6.6
				c0.2,1,0.5,2.1,0.8,3c0.4,0.9,0.8,2,1.4,2.9c2.1,3.8,5,7.1,8.5,9.7c3.5,2.6,7.5,4.6,11.8,5.9c2.1,0.7,4.3,1.2,6.5,1.6
				c1.1,0.2,2.2,0.4,3.3,0.4l3.3,0.1c4.4-0.1,8.8-1,12.8-2.9c4-1.9,7.4-4.8,10.2-8.3c2.8-3.5,5-7.4,6.8-11.6c1.8-4.2,3.1-8.5,4.2-13
				c1-4.4,1.8-9,2.3-13.5c0.5-4.5,0.8-9.1,0.7-13.7l0-1.4l0.7,1.2l0,0c2.6,2.1,5.3,4,8,5.5c0.7,0.4,1.4,0.7,2,1l1,0.4l1,0.3
				c1.3,0.5,2.6,0.7,3.6,0.6c1-0.1,1.8-0.4,2-1.1c0.2-0.6-0.2-1.3-0.7-1.7c-0.5-0.5-0.9-0.9-1.2-1.4l-0.5-0.8
				c-0.1-0.1-0.2-0.3-0.3-0.4c0-0.1-0.1-0.1-0.2-0.1c0,0-0.1,0-0.1,0c0,0-0.1,0-0.1,0.1l-0.1,0c0,0-0.1,0.1-0.2,0.2l0,0l-1.9,6.5
				c2.5-21.4,4.8-42.9,6.9-64.4c2.1-21.5,4.1-43,5.8-64.6c1.6-21.5,3.1-43.1,3.6-64.6c0.1-5.4,0.1-10.7,0-16.1
				c-0.2-5.3-0.4-10.7-1.3-15.8c-0.3-1.2-0.5-2.5-0.9-3.5l-0.1-0.4c-0.1-0.1-0.1-0.2-0.2-0.3c-0.1-0.2-0.2-0.4-0.4-0.7l-1.1-1.6
				c-1.5-2.2-3.2-4.1-5-6c-1.9-1.8-4-3.4-6.3-4.4c-0.6-0.3-1.2-0.4-1.8-0.7c-0.6-0.1-1.2-0.3-1.9-0.3c-1.2-0.1-2.6,0-3.7,0.5
				l-0.8,0.3l0-0.7l0,0c0-10.7-0.1-21.5-0.6-32.2c-0.3-5.4-0.6-10.7-1.2-16.1c-0.3-2.7-0.6-5.3-1.1-7.9c-0.3-1.3-0.5-2.6-0.9-3.9
				c-0.2-0.6-0.4-1.2-0.7-1.8c-0.1-0.3-0.3-0.5-0.5-0.7c-0.1-0.1-0.2-0.2-0.2-0.2c-0.1,0-0.1,0,0-0.1l-0.8-0.4
				C843.4,688.9,843.5,681.9,843.6,674.8z"/>
		</g>
		<g id="lines_1_">
			<line class="st10" x1="843" y1="777.3" x2="843" y2="876.7"/>
			
				<rect x="820.8" y="901" transform="matrix(-1 1.546880e-06 -1.546880e-06 -1 1660.7849 1891.6134)" class="st10" width="19.3" height="89.7"/>
			<path class="st10" d="M814.3,880.2c0,0-12.6-10.3-11.4,7.4s-5.9,159.7-0.1,161.4c5.8,1.7,13.5,4.7,25.2-8.6
				c11.7-13.3,15.9-46.9,15.9-46.9l11.3-3.9c0,0,2,28,6.7,18.9c4.7-9.2,0-214.8,0-214.8"/>
		</g>
	</g>
</g>
<g id="stars">
	<path class="st11" d="M996.3,179.9c0,0,8.6,14.8,16.6,13.5c0,0-16,4.9-16.6,11.1c-0.6,6.1,1.2-8-14.8-12.3
		C981.5,192.2,992,189.7,996.3,179.9z"/>
	<path class="st11" d="M962,232.1c0,0,6.9,11.8,13.3,10.8c0,0-12.8,3.9-13.3,8.8s1-6.4-11.8-9.8C950.2,241.9,958.5,239.9,962,232.1z
		"/>
	<path class="st11" d="M670,61.8c0,0,16.2,29.3,31.3,26.8c0,0-30.2,9.8-31.3,21.9s2.3-15.8-27.8-24.4
		C642.2,86.2,661.9,81.3,670,61.8z"/>
	<path class="st11" d="M86.4,180.1c0,0,16.2,29.3,31.3,26.8c0,0-30.2,9.8-31.3,21.9c-1.2,12.2,2.3-15.8-27.8-24.4
		C58.6,204.5,78.3,199.6,86.4,180.1z"/>
	<path class="st11" d="M102.1,40c0,0,8.1,14.6,15.7,13.4c0,0-15.1,4.9-15.7,11c-0.6,6.1,1.2-7.9-13.9-12.2
		C88.2,52.2,98,49.7,102.1,40z"/>
	<path class="st11" d="M774.8,44c0,0,13.2,24.7,25.5,22.6c0,0-24.6,8.2-25.5,18.5s1.9-13.4-22.7-20.6
		C752.1,64.6,768.2,60.5,774.8,44z"/>
</g>
</svg>
