<?xml version="1.0" encoding="utf-8"?>
<!-- Generator: Adobe Illustrator 22.1.0, SVG Export Plug-In . SVG Version: 6.00 Build 0)  -->
<svg version="1.1" id="beatblue" xmlns="http://www.w3.org/2000/svg" xmlns:xlink="http://www.w3.org/1999/xlink" x="0px" y="0px"
	 viewBox="0 0 346 347" style="enable-background:new 0 0 346 347;" xml:space="preserve">
<style type="text/css">
	.st0{fill:#2FD2ED;}
</style>
<path id="background" d="M334,347H12c-6.6,0-12-5.4-12-12V13C0,6.4,5.4,1,12,1h322c6.6,0,12,5.4,12,12v322
	C346,341.6,340.6,347,334,347z"/>
<polygon id="largeorange" class="st0" points="50,160.5 72.6,234 277.4,234 300,160.5 300,107.3 50,107.3 "/>
<polygon id="blackinner" points="67,161.7 86.4,225 262.4,225 281.9,161.7 281.9,116 67,116 "/>
<polygon id="smallorange" class="st0" points="81.9,162.5 98.7,217 250.4,217 267.2,162.5 267.2,123.1 81.9,123.1 "/>
<polygon id="plug" points="253.6,168.4 253.6,179.7 242.3,179.7 242.3,170.7 231,170.7 231,179.7 219.7,179.7 219.7,170.7 
	208.4,170.7 208.4,179.7 197.1,179.7 197.1,170.7 185.7,170.7 185.7,179.7 174.4,179.7 174.4,170.7 163.1,170.7 163.1,179.7 
	151.8,179.7 151.8,170.7 140.5,170.7 140.5,179.7 129.2,179.7 129.2,170.7 117.9,170.7 117.9,179.7 106.6,179.7 106.6,170.7 
	95.2,170.7 95.2,158.2 106.6,158.2 106.6,166.1 117.9,166.1 117.9,158.2 129.2,158.2 129.2,166.1 140.5,166.1 140.5,158.2 
	151.8,158.2 151.8,166.1 163.1,166.1 163.1,158.2 174.4,158.2 174.4,166.1 185.7,166.1 185.7,158.2 197.1,158.2 197.1,166.1 
	208.4,166.1 208.4,158.2 219.7,158.2 219.7,166.1 231,166.1 231,158.2 242.3,158.2 242.3,166.1 253.6,166.1 "/>
</svg>
