<?xml version="1.0" encoding="utf-8"?>
<!-- Generator: Adobe Illustrator 22.1.0, SVG Export Plug-In . SVG Version: 6.00 Build 0)  -->
<svg version="1.1" id="beatred" xmlns="http://www.w3.org/2000/svg" xmlns:xlink="http://www.w3.org/1999/xlink" x="0px" y="0px"
	 viewBox="0 0 349 349" style="enable-background:new 0 0 349 349;" xml:space="preserve">
<style type="text/css">
	.st0{fill:#D30707;}
</style>
<circle id="background_1_" cx="174.5" cy="174.5" r="174.5"/>
<path id="outerred" class="st0" d="M271.6,109h-93.9h-0.9H82.8c0,0-9.4,73.8,5.7,101.6s28.5,33.9,48.4,38.7
	c18.2,4.4,37.2,3.8,40.3,3.6c3.1,0.1,22.2,0.8,40.3-3.6c19.9-4.8,33.2-10.9,48.4-38.7C281,182.8,271.6,109,271.6,109z"/>
<path id="innerblack" d="M242.9,132H177h-0.6h-65.9c0,0-6.7,51.7,4,71.3s20,23.8,33.9,27.1c12.8,3.1,26.1,2.7,28.3,2.6
	c2.2,0.1,15.5,0.5,28.3-2.6c14-3.4,23.3-7.6,33.9-27.1C249.5,183.7,242.9,132,242.9,132z"/>
<rect id="bigrec" x="124.9" y="161.4" class="st0" width="106" height="31.6"/>
<circle id="hole10" cx="138.4" cy="169.5" r="4.5"/>
<circle id="hole9" cx="158.4" cy="169.5" r="4.5"/>
<circle id="hole8" cx="178.4" cy="169.5" r="4.5"/>
<circle id="hole7" cx="198.4" cy="169.5" r="4.5"/>
<circle id="hole6" cx="218.4" cy="169.5" r="4.5"/>
<circle id="hole5" cx="138.4" cy="185.5" r="4.5"/>
<circle id="hole4" cx="158.4" cy="185.5" r="4.5"/>
<circle id="hole3" cx="178.4" cy="185.5" r="4.5"/>
<circle id="hole2" cx="198.4" cy="185.5" r="4.5"/>
<circle id="hole1" cx="218.4" cy="185.5" r="4.5"/>
<rect id="rec6" x="133.9" y="199" class="st0" width="16" height="7"/>
<rect id="rec5" x="169.9" y="199" class="st0" width="16" height="7"/>
<rect id="rec4" x="205.9" y="199" class="st0" width="16" height="7"/>
<rect id="rec3" x="133.9" y="150" class="st0" width="16" height="7"/>
<rect id="rec2" x="169.9" y="150" class="st0" width="16" height="7"/>
<rect id="rec1" x="205.9" y="150" class="st0" width="16" height="7"/>
</svg>
