<?xml version="1.0" encoding="utf-8"?>
<!-- Generator: Adobe Illustrator 22.1.0, SVG Export Plug-In . SVG Version: 6.00 Build 0)  -->
<svg version="1.1" id="beatgreen" xmlns="http://www.w3.org/2000/svg" xmlns:xlink="http://www.w3.org/1999/xlink" x="0px" y="0px"
	 viewBox="0 0 385.9 324.7" style="enable-background:new 0 0 385.9 324.7;" xml:space="preserve">
<style type="text/css">
	.st0{fill:#F2F21C;}
	.st1{fill:#D7DB16;}
</style>
<path id="background" d="M2.4,40.8c5,11.9,130.3,240.5,145.1,264.6s59,26.8,76.4,1.9c16.3-20.8,152.6-250,160-266.5
	c7.4-28.6-5.9-38.9-27.9-39C334.1,1.7,40.5-3,21.4,3.3S-3.9,25.6,2.4,40.8z"/>
<path id="bigtri" class="st0" d="M288.5,50.2c2.9,2.4-93.7,201.3-100.6,201.3C181,251.5,85.6,53.1,87.4,50.2
	C89.2,47.3,285.8,47.8,288.5,50.2z"/>
<path id="bbigtri" d="M261.5,67.6c2.1,1.7-68.6,147.5-73.7,147.5c-5.1,0-75-145.4-73.7-147.5C115.5,65.5,259.5,65.9,261.5,67.6z"/>
<path id="smalltri" class="st0" d="M247.4,75.4c1.7,1.4-55.9,120.1-60,120.1s-61.1-118.4-60-120.1C128.5,73.6,245.7,74,247.4,75.4z"
	/>
<polygon id="brec3" points="143.8,84.2 147.8,94.2 226.8,94.2 230.8,84.2 "/>
<polygon id="brec2" points="149.8,99.2 153.2,109.1 221.3,109.1 224.8,99.2 "/>
<polygon id="brec1" points="154.8,114.2 157.8,124.1 216.8,124.1 219.8,114.2 "/>
<polygon id="middle" points="161.8,131.2 187.8,179.2 213.8,131.2 "/>
<polygon id="rec3" class="st1" points="172.6,152.8 181.7,148.2 182.8,150.6 173.7,155.2 "/>
<polygon id="rec2" class="st1" points="189,130.6 189,140.8 186.3,140.7 186.3,130.6 "/>
<polygon id="rec1" class="st1" points="201.8,154.9 192.4,150.9 193.6,148.4 202.9,152.5 "/>
</svg>
