<?xml version="1.0" encoding="utf-8"?>
<!-- Generator: Adobe Illustrator 22.1.0, SVG Export Plug-In . SVG Version: 6.00 Build 0)  -->
<svg version="1.1" id="effectsred" xmlns="http://www.w3.org/2000/svg" xmlns:xlink="http://www.w3.org/1999/xlink" x="0px" y="0px"
	 viewBox="0 0 331 342" style="enable-background:new 0 0 331 342;" xml:space="preserve">
<style type="text/css">
	.st0{fill:#D30707;}
</style>
<polygon id="line7" class="st0" points="153.1,215.4 125.5,261 138.9,264.9 155.2,216.4 "/>
<polygon id="line6" class="st0" points="127.8,179.6 51.1,189.3 52.3,200.7 128.5,181 "/>
<polygon id="line5" class="st0" points="77.7,102.6 137.5,146.9 139.2,145.2 86.3,96.3 "/>
<polygon id="line4" class="st0" points="172.9,39 177.4,125.5 178.9,126 183.5,38.8 "/>
<polygon id="line3" class="st0" points="276.7,100.8 213.6,141.1 214.6,142.3 281.4,110.1 "/>
<polygon id="line2" class="st0" points="243.2,271.4 194.5,202 193.7,202.3 231.3,277.9 "/>
<polygon id="line1" class="st0" points="221.4,183.6 284.8,213.3 288.7,206.2 221.7,182.4 "/>
<circle id="circle8" cx="176.5" cy="170.5" r="54.5"/>
<circle id="circle7" cx="179.5" cy="30.5" r="27.5"/>
<circle id="circle6" cx="287.5" cy="99.5" r="36.5"/>
<circle id="circle5" cx="296.5" cy="214.5" r="17.5"/>
<circle id="circle4" cx="247.5" cy="288.5" r="27.5"/>
<circle id="circle3" cx="122" cy="290" r="38"/>
<circle id="circle2" cx="30.5" cy="199.5" r="27.5"/>
<circle id="circle1" cx="73" cy="92" r="20"/>
</svg>
