<?xml version="1.0" encoding="utf-8"?>
<!-- Generator: Adobe Illustrator 22.1.0, SVG Export Plug-In . SVG Version: 6.00 Build 0)  -->
<svg version="1.1" id="effectsgreen" xmlns="http://www.w3.org/2000/svg" xmlns:xlink="http://www.w3.org/1999/xlink" x="0px"
	 y="0px" viewBox="0 0 362 348" style="enable-background:new 0 0 362 348;" xml:space="preserve">
<style type="text/css">
	.st0{fill:#F2F21C;}
</style>
<polygon id="path6" class="st0" points="168,40 171.6,214 186,214 183.8,40 "/>
<polygon id="path5" class="st0" points="184,234 319,328 331,315 194,220 "/>
<polygon id="path4" class="st0" points="27.9,336 187.5,231.7 179.8,215.9 21.4,321.7 "/>
<polygon id="path3" class="st0" points="38,334.8 320,335.2 323,316 44,314.8 "/>
<polygon id="path2" class="st0" points="168,29 27,310 43,310 180,37 "/>
<polygon id="path1" class="st0" points="172,37.8 331,325 344,318 187,37 "/>
<circle id="circle4" cx="177" cy="32.5" r="28.5"/>
<circle id="circle3" cx="330.5" cy="319.5" r="28.5"/>
<circle id="circle2" cx="31.5" cy="318.5" r="28.5"/>
<circle id="circle1" cx="179.5" cy="226.5" r="28.5"/>
</svg>
