<?xml version="1.0" encoding="utf-8"?>
<!-- Generator: Adobe Illustrator 22.1.0, SVG Export Plug-In . SVG Version: 6.00 Build 0)  -->
<svg version="1.1" id="effectsblue" xmlns="http://www.w3.org/2000/svg" xmlns:xlink="http://www.w3.org/1999/xlink" x="0px"
	 y="0px" viewBox="0 0 342.1 315.1" style="enable-background:new 0 0 342.1 315.1;" xml:space="preserve">
<style type="text/css">
	.st0{fill:#2FD2ED;}
</style>
<polygon id="line13" class="st0" points="157.7,16.4 311,18.7 311.3,25.6 158,23.2 "/>
<polygon id="line12" class="st0" points="18.5,87 18.5,269 27.5,269 27.5,86.8 "/>
<polygon id="line11" class="st0" points="139.3,34 139.3,184 147.6,184 147.6,36 "/>
<polygon id="line10" class="st0" points="324.7,198.9 218.3,289 223.9,297.1 334.6,200.9 "/>
<polygon id="line9" class="st0" points="36.3,288.3 205.5,294.4 204.7,284.7 38.4,278.4 "/>
<polygon id="line8" class="st0" points="320.8,24.1 223.1,84.6 230.9,90.9 327,31 "/>
<polygon id="line7" class="st0" points="211.5,89 211.5,280 221.5,277 221.5,87 "/>
<polygon id="line6" class="st0" points="319.9,33.5 328.3,33.5 328.7,192.5 319.9,192.5 "/>
<polygon id="line4" class="st0" points="145.1,187.8 17,275 22.1,283.2 146.6,197.8 "/>
<polygon id="line3" class="st0" points="307.4,195.8 155.3,193.8 153.9,201.8 307.7,204.2 "/>
<polygon id="line2" class="st0" points="199.6,81 38.9,75.2 39.5,85.5 200.1,91.3 "/>
<polygon id="line1" class="st0" points="12.1,78.7 149.8,11.3 149.8,20.1 16.9,86.8 "/>
<circle id="circle8" cx="218.3" cy="290" r="21"/>
<circle id="circle7" cx="23.8" cy="280" r="19.3"/>
<circle id="circle6" cx="23.8" cy="76.8" r="19.3"/>
<circle id="circle5" cx="218.3" cy="86.8" r="21"/>
<circle id="circle4" cx="325.1" cy="21.9" r="16.9"/>
<circle id="circle3" cx="144.1" cy="197.1" r="16.9"/>
<circle id="circl2" cx="323.1" cy="200.1" r="16.9"/>
<circle id="circle1" cx="144.1" cy="21.9" r="16.9"/>
</svg>
