<?xml version="1.0" encoding="utf-8"?>
<!-- Generator: Adobe Illustrator 22.1.0, SVG Export Plug-In . SVG Version: 6.00 Build 0)  -->
<svg version="1.1" id="melodygreen" xmlns="http://www.w3.org/2000/svg" xmlns:xlink="http://www.w3.org/1999/xlink" x="0px"
	 y="0px" viewBox="0 0 358.7 332.6" style="enable-background:new 0 0 358.7 332.6;" xml:space="preserve">
<style type="text/css">
	.st0{fill:#FFFFFF;}
	.st1{fill:#F2F21C;}
</style>
<path id="background" d="M9.5,59.6c5,11.9,107,227.5,121.8,251.6s59,26.8,76.4,1.9c16.3-20.8,132-238.7,139.4-255.2
	c19.5-40.7-8-50.3-32.5-50.3c-23-5.1-264.4-4.8-283.5,1.5C10,9.5-8,26.9,9.5,59.6z"/>
<polygon id="line9_2_" class="st0" points="189.8,327.6 189.5,267.2 207.2,228.2 206.8,159.5 214.2,159.5 214.5,230.8 196.9,268.5 
	197.3,323.6 "/>
<polygon id="line8_2_" class="st0" points="164,329.6 165.9,289.6 171.3,280.9 171.2,253.9 178.4,239.7 168.8,210.2 168.5,158.7 
	173.6,158.7 173.8,206.3 184.9,241 176.3,257.7 176.4,284.7 173.4,289.4 171.4,330.6 "/>
<polygon id="line7_1_" class="st0" points="141,153.9 141.3,213 129,239.7 150.7,272 150.8,283.4 150.9,326.6 143.4,323.6 
	143.1,274.1 120.6,241.9 135.1,210.9 134.8,153.9 "/>
<polygon id="line3_2_" class="st0" points="172.3,144.7 212.2,131.1 242.6,136.9 301.7,101.3 331,89.3 327.5,95.9 308,105.8 
	243.9,146.2 210.8,139.9 174.4,150.8 "/>
<path id="line2_2_" class="st0" d="M153.9,125.9l26.1-12.6l5,10.4l48.2-23.2l23.2-0.7l22-9.2l53-51.5l22.4-9.5
	c0.7,3.4-0.1,10-0.4,8.6L336,44.7l-53.1,50.9l-26.7,13l-22.2,0.2l-55.2,26.6l-4.1-8.5l-17.1,8.2L153.9,125.9z"/>
<polygon id="line9_1_" class="st0" points="165.6,98.2 123.6,79.1 101.1,50.4 30.2,9.1 38.5,7.8 106,44.9 127.4,73.1 168.6,91.6 "/>
<path id="line8_1_" class="st0" d="M143.7,124.2L120,113.6l-3.2-12.4l-19.1-8.6L91.8,79l-26.3,2.5l-63-46.6c0-2.1,0.2-4.2,0.6-6.3
	l62.4,45.3l30.7-2.7l7,16.3l19.1,8.6l4.2,12.8l18.2,8.1L143.7,124.2z"/>
<polygon id="line7_2_" class="st0" points="132.5,144.4 94.2,127.2 81.4,109.4 52.7,117.4 36.7,106.7 28.3,99.8 22.7,88.9 54,110.7 
	83.1,102 97.9,122.8 134.8,139.4 "/>
<polygon id="line1_1_" class="st0" points="181.6,92.4 199.5,77.7 219.7,78.6 231.9,54.4 253.9,43.8 314,7.6 327,7.6 237.4,60.4 
	222.4,87.5 199.8,85.8 180.8,105.5 "/>
<path id="bigtri" class="st1" d="M117.3,179.2c-1-1.6,51.5-110.7,55.3-110.7s56.9,109.4,55.3,110.7
	C226.4,180.5,118.3,180.8,117.3,179.2z"/>
<path id="middletri" d="M131.3,164.3c-0.7-1.2,39.4-84.7,42.4-84.7c2.9,0,43.6,83.8,42.4,84.7S132,165.6,131.3,164.3z"/>
<path id="smalltri" class="st1" d="M146.9,151.4c-0.5-0.8,25.9-55.7,27.8-55.7c1.9,0,28.6,55,27.8,55.7
	C201.7,152,147.3,152.2,146.9,151.4z"/>
</svg>
