<?xml version="1.0" encoding="utf-8"?>
<!-- Generator: Adobe Illustrator 22.1.0, SVG Export Plug-In . SVG Version: 6.00 Build 0)  -->
<svg version="1.1" id="melodyblue" xmlns="http://www.w3.org/2000/svg" xmlns:xlink="http://www.w3.org/1999/xlink" x="0px" y="0px"
	 viewBox="0 0 347 346" style="enable-background:new 0 0 347 346;" xml:space="preserve">
<style type="text/css">
	.st0{fill:#2FD2ED;}
	.st1{fill:#FFFFFF;}
</style>
<path id="background" d="M335,346H13c-6.6,0-12-5.4-12-12V12C1,5.4,6.4,0,13,0h322c6.6,0,12,5.4,12,12v322
	C347,340.6,341.6,346,335,346z"/>
<g id="whitesquarebig">
	<path class="st0" d="M213.3,227h-73.7c-7,0-12.7-5.7-12.7-12.7v-73.7c0-7,5.7-12.7,12.7-12.7h73.7c7,0,12.7,5.7,12.7,12.7v73.7
		C226,221.3,220.3,227,213.3,227z"/>
</g>
<path id="blacksquare" d="M200.8,216h-48.7c-7.8,0-14.2-6.3-14.2-14.2v-48.7c0-7.8,6.3-14.2,14.2-14.2h48.7
	c7.8,0,14.2,6.3,14.2,14.2v48.7C215,209.7,208.7,216,200.8,216z"/>
<g id="whitesquaresmall">
	<path class="st0" d="M197.3,204h-38.7c-5.3,0-9.7-4.3-9.7-9.7v-38.7c0-5.3,4.3-9.7,9.7-9.7h38.7c5.3,0,9.7,4.3,9.7,9.7v38.7
		C207,199.7,202.7,204,197.3,204z"/>
</g>
<polygon id="line12_2_" class="st1" points="197.6,128 197.6,100 218,54 218,31 218,0 226,0 226,58.5 206.5,101.5 206.5,128 "/>
<polygon id="line11_2_" class="st1" points="158.2,128 158,73 129,73 129,31 129,0 120,0 120,80.5 147.5,80.5 147.5,128 "/>
<polygon id="line10_2_" class="st1" points="180.3,128 180,45 158,31 158,0 149,0 149.5,36.5 171.5,51.5 171.5,128 "/>
<polygon id="line9_2_" class="st1" points="127,152.3 84,152 54,135 1,135 1,128 56,128 85,145 127,145 "/>
<polygon id="line8_2_" class="st1" points="129,185 103,185 95,175 74,175 63,165 40,178 0,178 0,171 37,171 64,156 77,168 98,168 
	107,178 127,178 "/>
<polygon id="line7_1_" class="st1" points="127,208 85,208 66,197 43,216 17,216 0,216 0,209.3 41.5,209.3 64.5,189.5 86.5,202.5 
	127,202.5 "/>
<polygon id="line6_1_" class="st1" points="146.8,227 147,251 134,274 151,301 151,346 142.5,346 142.5,301.5 125.5,274.5 
	139.5,249.5 139.5,226.5 "/>
<polygon id="line5_1_" class="st1" points="176,227 177,265 187,285 176,316 176,346 169.5,346 169.5,314.5 179.5,285.5 
	169.5,265.5 169.5,226.5 "/>
<polygon id="line4_2_" class="st1" points="201,227 201.2,282 220,282 220,346 212.3,346 212.3,288.5 194.5,288.5 194.5,226.5 "/>
<polygon id="line3_2_" class="st1" points="226,200.7 269,201 291,220 347,220.5 347,229.3 288.5,229.3 264.5,208.5 226,208.5 "/>
<polygon id="line2_2_" class="st1" points="224,168 250,168 250,179 298,179 317,188 347,188 347,195.5 313.5,195.5 295.5,186.5 
	240.5,186.5 240.5,177.5 223.5,177.5 "/>
<polygon id="line1_1_" class="st1" points="226,145 268,145 287,156 310,137 336,137 347.5,137 347.5,146 312.5,146 285.5,166.5 
	264.5,153.5 226,153.5 "/>
</svg>
