<?xml version="1.0" encoding="utf-8"?>
<!-- Generator: Adobe Illustrator 22.1.0, SVG Export Plug-In . SVG Version: 6.00 Build 0)  -->
<svg version="1.1" id="melodyred" xmlns="http://www.w3.org/2000/svg" xmlns:xlink="http://www.w3.org/1999/xlink" x="0px" y="0px"
	 viewBox="0 0 349.1 349" style="enable-background:new 0 0 349.1 349;" xml:space="preserve">
<style type="text/css">
	.st0{display:none;}
	.st1{fill:#FFFFFF;}
	.st2{fill:#D30707;}
</style>
<path id="background" class="st0" d="M336.1,348h-322c-6.6,0-12-5.4-12-12V14c0-6.6,5.4-12,12-12h322c6.6,0,12,5.4,12,12v322
	C348.1,342.6,342.7,348,336.1,348z"/>
<circle id="background_1_" cx="174.6" cy="174.5" r="174.5"/>
<polygon id="line12_2_" class="st1" points="195.7,215 195.7,249 216.1,295 216.1,318 216.1,344 224.1,342 224.1,290.5 204.6,247.5 
	204.6,211 "/>
<polygon id="line11_2_" class="st1" points="156.3,221 156.1,276 127.1,276 127.1,318 127.1,343 118.1,340 118.1,268.5 145.6,268.5 
	145.6,211 "/>
<polygon id="line10_2_" class="st1" points="178.4,221 178.1,304 156.1,318 157.1,348 147.1,347 147.6,312.5 169.6,297.5 169.6,221 
	"/>
<polygon id="line9_2_" class="st1" points="216.1,151.3 265.1,151 295.1,134 344.1,134 343.1,127 293.1,127 264.1,144 212.1,144 "/>
<polygon id="line8_2_" class="st1" points="220.1,184 246.1,184 254.1,174 275.1,174 286.1,164 309.1,177 349.1,177 349.1,170 
	312.1,170 285.1,155 272.1,167 251.1,167 242.1,177 217.1,177 "/>
<polygon id="line7_1_" class="st1" points="210.1,207 264.1,207 283.1,196 306.1,215 332.1,215 344.1,215 346.1,208 307.6,208.3 
	284.6,188.5 262.6,201.5 212.1,201.5 "/>
<polygon id="line6_1_" class="st1" points="1.1,151.3 33.1,151.5 56.1,138.5 83.1,155.5 132.1,155.5 142.1,147 83.6,147 56.6,130 
	31.6,144 2.1,144 "/>
<path id="line5_1_" class="st1" d="M0.6,173.5l42.5,0.5l20-10l31,11h34l1,6.5H92.6l-29-10l-20,10H0.1C-0.1,175.6,0,172.3,0.6,173.5z
	"/>
<polygon id="line4_2_" class="st1" points="140.1,199.3 66.3,198 66.3,212.5 4.1,212.5 2.3,204.8 59.8,204.8 59.1,189.6 133.1,190 
	"/>
<polygon id="line3_2_" class="st1" points="193.2,132 193.4,80.6 212.4,58.6 212.9,4 221.7,6 221.7,61.1 200.9,85.1 200.9,136 "/>
<polygon id="line2_2_" class="st1" points="164.4,125.6 164.4,99.6 175.4,99.6 175.4,51.6 184.4,32.6 184.4,0 192.1,1 191.9,36.1 
	182.9,54.1 182.9,109.1 173.9,109.1 173.9,126.1 "/>
<polygon id="line1_1_" class="st1" points="141.4,140 141.4,81.6 152.4,62.6 133.4,39.6 133.4,13.6 133.4,5 143.2,2.9 142.4,37.1 
	162.9,64.1 149.9,85.1 149.9,135 "/>
<circle id="bigred" class="st2" cx="174.6" cy="174.5" r="49.5"/>
<circle id="middleblack" cx="176.1" cy="173" r="42"/>
<circle id="smallred" class="st2" cx="178.1" cy="170" r="29"/>
</svg>
