<?xml version="1.0" encoding="utf-8"?>
<!-- Generator: Adobe Illustrator 23.0.2, SVG Export Plug-In . SVG Version: 6.00 Build 0)  -->
<svg version="1.1" xmlns="http://www.w3.org/2000/svg" xmlns:xlink="http://www.w3.org/1999/xlink" x="0px" y="0px"
	 viewBox="0 0 111 226.9" style="enable-background:new 0 0 111 226.9;" xml:space="preserve">
<style type="text/css">
	.st0{fill:none;stroke:#2FD2ED;stroke-miterlimit:10;}
	.st1{fill:#D30707;}
	.st2{fill:#F2F21C;}
	.st3{fill:#FFE6DF;stroke:#9F6C54;stroke-miterlimit:10;}
	.st4{fill:#020202;}
	.st5{fill:#F28322;}
	.st6{fill:#6A422C;}
	.st7{fill:#FFB135;}
	.st8{fill:#FFAD37;}
	.st9{fill:#8AD1DE;}
	.st10{fill:#A8635E;}
	.st11{fill:#EDA713;}
	.st12{fill:#63442A;}
</style>
<g id="stroke_x5F_green">
	<line class="st0" x1="56.9" y1="1.7" x2="56.9" y2="11.3"/>
</g>
<g id="red_x5F_dot_1_">
	<circle id="red_x5F_dot" class="st1" cx="56.9" cy="1.7" r="1.7"/>
</g>
<g id="red_x5F_rectg">
	<rect x="51.9" y="11.3" class="st1" width="10" height="4.9"/>
</g>
<g id="head_x5F_top">
	<polygon id="yellow_x5F_face" class="st2" points="24.9,66 90.6,66 89.9,39.3 24.2,40 	"/>
	<ellipse id="eye2" class="st3" cx="39.7" cy="46.6" rx="3.8" ry="3.4"/>
	<ellipse id="eye1" class="st3" cx="71.6" cy="46.6" rx="3.8" ry="3.4"/>
	<polygon id="brown_x5F_top" class="st4" points="51.9,16.2 24.2,31.6 89.9,31.6 63.4,16.2 	"/>
	<polygon id="orange_x5F_1" class="st5" points="24.2,31.6 24.2,40 89.9,39.3 89.9,31.6 	"/>
	<path id="orange_x5F_2" class="st5" d="M24.9,66c0,0,7.4,10.3,10.2,11.6s42.6,0,42.6,0S88.1,71.1,90.6,66H24.9z"/>
	<path id="mouse" class="st6" d="M42.2,55.3c0,0-3,2.7,0,5.1h30.1c0,0,3.6-1.3,0-5.1H42.2z"/>
</g>
<g id="neck">
	<polygon class="st7" points="26.4,77.2 26.4,89.8 87.3,89.2 87.3,77.2 	"/>
</g>
<g id="body">
	<path id="left_x5F_sholder" d="M26.4,89.8v-4.5c0,0-13.5-1.7-15,0.7c0,0-9.3,4.7-8.8,12.6c0,0-0.9,8.2,8,15.1L26.4,89.8z"/>
	<path id="right_x5F_sholder" d="M87.3,84.8h14.4c0,0,6.5,3.9,7.9,7.8c1.3,3.9,1.5,6.1,1.5,7.9c0,1.8-0.7,5.9-0.7,5.9
		s-3.9,6.2-6.2,7.4c0,0-8.7-20-14.2-23s-2.6-1.6-2.6-1.6V84.8z"/>
	<rect id="left_x5F_arm" x="6.1" y="109.3" class="st8" width="8.3" height="29.2"/>
	<path id="belly" class="st9" d="M26.6,87.9l-16,24.7c0,0-2.3,20.5,16,36.7h62.9c0,0,15.3-11,15.6-36.7c0,0,0.3-8.7-17-25.4
		L26.6,87.9z"/>
	<polygon id="right_x5F_arm" class="st8" points="110.3,106.4 111,138.5 97.2,136.6 96,129.6 103.5,129.8 104.6,113.8 	"/>
	<path id="right_x5F_palm" class="st10" d="M97.8,129.6V127c0,0-1.9,0.3-4.1-0.7c-2.2-1-3.2-1.7-3.2-1.7l-1.1-1.7
		c0,0-3.3-0.3-2.8,1.5c0.5,1.9,0.3,1.3,0.3,1.3l-6.6,0.3c0,0-2,2.6,0.5,3.6l7.3,0.5c0,0,1.3,0.8-0.2,1.3h-7.8c0,0-1,2.2,0.1,3
		l7.9,0.4c0,0,0.9,1.1-0.3,1.4c-1.1,0.3-7.7,0-7.7,0s-1.1,1.9,0.3,2.7h17.5V129.6z"/>
	<path id="left_x5F_palm" class="st10" d="M4.3,136.8c0,0,0.2,5.3-0.7,5.8c-0.8,0.4-3.6,4-3.6,4s-0.3,1.8,3.6,0.6c0,0-0.2,7,0.3,7.4
		s2,0.8,2-1.2c-0.1-2,0-5.5,0-5.5s1-2.3,1.7-0.7c0.7,1.6,0.5,6.7,0.5,6.7s0.9,1.7,2.7,0.7l1-7.4c0,0,0.1-2.6,1-1.3
		c0.9,1.3,0.7,8.4,0.7,8.4s0.8,1.7,2-0.1l-0.5-17.1L4.3,136.8z"/>
	<polygon id="top_x5F_knees" class="st7" points="26.6,149.3 22.7,160.5 92.2,160.5 87.3,149.3 	"/>
	<polygon id="leg_x5F_left" class="st11" points="27,171.3 28.3,210.3 47.4,210.3 46.7,170.6 	"/>
	<ellipse id="yellow_x5F_1_1_" class="st2" cx="38.3" cy="198.5" rx="13.4" ry="2.2"/>
	<ellipse id="yellow_x5F_1" class="st2" cx="38.3" cy="188.3" rx="13.4" ry="2.2"/>
	<polygon id="leg_x5F_right" class="st11" points="67.5,171.3 68.8,210.3 87.9,210.3 87.2,170.6 	"/>
	<path id="knee1" d="M22.7,160.5h28.8c0,0,1.9,6.2-5.4,11.8C38.9,178,26.1,175.9,22.7,160.5z"/>
	<path id="knee2" d="M62.1,160.5h28.8c0,0,1.9,6.2-5.4,11.8C78.2,178,65.5,175.9,62.1,160.5z"/>
	<ellipse id="yellow_x5F_1_6_" class="st2" cx="77.7" cy="198.5" rx="13.4" ry="2.2"/>
	<ellipse id="yellow_x5F_1_4_" class="st2" cx="77.7" cy="188.3" rx="13.4" ry="2.2"/>
	<path id="left_x5F_foot" class="st12" d="M18.9,226.9c0,0-0.1-14.6,7.4-16.6h21.6c0,0,4.6,2,8,5.8c3.3,3.8,1.1,10.8,1.1,10.8H18.9z
		"/>
	<path id="right_x5F_foot" class="st12" d="M60.1,226.9c0,0-0.1-14.6,7.4-16.6h21.6c0,0,4.6,2,8,5.8s1.1,10.8,1.1,10.8H60.1z"/>
</g>
</svg>
