<?xml version="1.0" encoding="utf-8"?>
<!-- Generator: Adobe Illustrator 23.0.2, SVG Export Plug-In . SVG Version: 6.00 Build 0)  -->
<svg version="1.1" xmlns="http://www.w3.org/2000/svg" xmlns:xlink="http://www.w3.org/1999/xlink" x="0px" y="0px"
	 viewBox="0 0 114 228.6" style="enable-background:new 0 0 114 228.6;" xml:space="preserve">
<style type="text/css">
	.st0{fill:#D33B27;stroke:#D43714;stroke-miterlimit:10;}
	.st1{fill:#566457;}
	.st2{fill:#BFAFAB;}
	.st3{fill:none;stroke:#42473F;stroke-miterlimit:10;}
	.st4{fill:#42473F;}
	.st5{fill:#FFFFFF;stroke:#42473F;stroke-miterlimit:10;}
	.st6{fill:#46494D;}
	.st7{fill:#6A7690;}
	.st8{fill:#5C2017;}
	.st9{fill:#463F32;}
	.st10{fill:#E8432E;}
	.st11{fill:#B62C2D;}
	.st12{fill:#F2A543;}
	.st13{fill:#D30707;}
	.st14{fill:#E27110;}
	.st15{fill:#F03C1D;}
	.st16{fill:#5D1C1C;}
	.st17{fill:#F2F21C;}
	.st18{fill:#2FD2ED;}
</style>
<g id="head">
	<path id="red_x5F_head" class="st0" d="M29.4,54.8V32.1c0,0,7.4-20,21.6-21.9s19.7,2.3,22.5,5c2.9,2.7,10.1,12.4,10.3,13.5
		c0.2,1.1,0,26.1,0,26.1H29.4z"/>
	<ellipse id="eye" class="st1" cx="41.5" cy="37.9" rx="10" ry="10.2"/>
	<circle id="eye_1_" class="st1" cx="72.1" cy="37.6" r="9.8"/>
	<polygon id="grey_x5F_head" class="st2" points="53.9,0 54.3,7.7 51.7,7.7 51.7,23.8 57.5,29.9 62,24.2 61.2,7.7 59.1,7.7 58.9,0 	
		"/>
	<circle id="glasses_x5F_left" class="st3" cx="41.7" cy="37.6" r="10.1"/>
	<circle id="glasses_x5F_right" class="st3" cx="72.1" cy="37.3" r="10.1"/>
	<path id="mouth" class="st4" d="M50.9,47.2c0,0,5.9,1.8,11.1,0c0,0,4.4,1.4,1.3,3.1c-3.1,1.7-10,1.6-11.6,0.8S48.9,49.1,50.9,47.2z
		"/>
	<polygon id="glasses_x5F_part_x5F_left" class="st3" points="29.4,35.3 31.2,35.3 31.6,40.4 29.4,40.2 	"/>
	<polygon id="glasses_x5F_part_x5F_right" class="st3" points="84,39.8 82.6,39.9 82.2,34.8 83.9,35 	"/>
	<ellipse id="_dark_x5F_gray_x5F_stroke" class="st5" cx="41.5" cy="38" rx="5.6" ry="5.4"/>
	<ellipse id="dark_x5F_gray_x5F_stroke" class="st5" cx="72.1" cy="37.9" rx="5.6" ry="5.4"/>
	<rect id="betwwen_x5F_glasses" x="51.4" y="34.8" class="st3" width="10.6" height="5.1"/>
	<g id="neck">
		<rect id="neck_x5F_1" x="45.8" y="55.6" class="st6" width="22.2" height="11.9"/>
		<path id="neck_x5F_stripes_x5F_3" class="st7" d="M67.3,57.8H46.5c-0.5,0-0.9-0.4-0.9-0.9v0c0-0.5,0.4-0.9,0.9-0.9h20.8
			c0.5,0,0.9,0.4,0.9,0.9v0C68.2,57.4,67.8,57.8,67.3,57.8z"/>
		<path id="neck_x5F_stripes2" class="st7" d="M67.5,62.1H46.7c-0.5,0-0.9-0.4-0.9-0.9v0c0-0.5,0.4-0.9,0.9-0.9h20.8
			c0.5,0,0.9,0.4,0.9,0.9v0C68.4,61.7,68,62.1,67.5,62.1z"/>
		<path id="neck_x5F_stripes" class="st7" d="M67.5,66.8H46.7c-0.5,0-0.9-0.4-0.9-0.9l0,0c0-0.5,0.4-0.9,0.9-0.9h20.8
			c0.5,0,0.9,0.4,0.9,0.9l0,0C68.4,66.4,68,66.8,67.5,66.8z"/>
	</g>
</g>
<g id="body">
	<path id="brown2" class="st8" d="M19.4,142.8c0,0-0.4-8.3,9-8.8s0,0,0,0s6.2,1.1,7,3.9c0.8,2.8,0,0,0,0l-2.6,2.7
		c0,0-1.3-2.4-4.4-2.3c-3.1,0.1-4.4,0.1-4.4,5h-4.6L19.4,142.8z"/>
	<path id="brown1" class="st8" d="M76,140.1c0,0,3.4-8.7,12.6-5.2c9.2,3.5,0,0,0,0s5.4,3.8,4.9,7s0,0,0,0l-3.8,1.7
		c0,0-0.2-3-3.1-4.3c-3-1.3-4.2-1.8-6.5,3.2l-4.4-1.9L76,140.1z"/>
	<rect id="arm_x5F_gray_x5F_part" x="25.2" y="92" class="st9" width="6.2" height="31.5"/>
	<rect id="arm_x5F_gray_x5F_part_1_" x="80.9" y="92" class="st9" width="6.2" height="31.5"/>
	<circle id="arm_x5F_red_x5F_part" class="st10" cx="28.3" cy="128.9" r="5.3"/>
	<circle id="arm_x5F_red_x5F_part_1_" class="st10" cx="84" cy="128.8" r="5.3"/>
	<polygon id="darker_x5F_red_x5F_bottom" class="st11" points="22.1,158.6 90.7,158.6 90.2,150.6 22.1,150.6 	"/>
	<polygon id="light_x5F_orange_x5F_body" class="st12" points="45.8,67.5 31.4,75.6 82.2,76.2 68,67.5 	"/>
	<path id="wings" class="st13" d="M0,83.9l113.2,1.1l0.8,16.1c0,0-16.5,5-24.1,4.5c-7.7-0.5-66.5,0-66.5,0s-19.2-1.1-23.4-4V83.9z"
		/>
	<polygon id="darker_x5F_red" class="st11" points="39.2,112.8 39.2,133.8 41,133.8 74.5,133.8 74.5,113.1 	"/>
	<polyline id="belly" class="st14" points="31.4,75.6 31.4,108.1 56.8,123.5 81,109.4 82.2,76.2 31.4,75.6 	"/>
	<polygon id="arrow2" class="st12" points="31.4,86.3 56,100.2 81.4,86.3 81.4,92.2 56.4,105.7 31.4,91.8 	"/>
	<polygon id="arrow1" class="st12" points="31.4,97.7 56,111.6 81.4,97.7 81.4,103.6 56.4,117.2 31.4,103.3 	"/>
	<polygon id="light_x5F_red_x5F_bottom" class="st15" points="38.8,133.8 22.4,150.6 90.5,150.6 74.7,133.8 	"/>
	<g id="leg1">
		<g id="neck_1_">
			<rect id="neck_x5F_1_1_" x="34.9" y="158.3" class="st6" width="14.7" height="17.4"/>
			<path id="neck_x5F_stripes_x5F_3_1_" class="st7" d="M48.8,161.4H35.6c-0.5,0-0.9-0.4-0.9-0.9v-0.8c0-0.5,0.4-0.9,0.9-0.9h13.2
				c0.5,0,0.9,0.4,0.9,0.9v0.8C49.7,161,49.3,161.4,48.8,161.4z"/>
			<path id="neck_x5F_stripes2_1_" class="st7" d="M48.9,167.7H35.8c-0.5,0-0.9-0.4-0.9-0.9v-0.8c0-0.5,0.4-0.9,0.9-0.9h13.2
				c0.5,0,0.9,0.4,0.9,0.9v0.8C49.8,167.3,49.4,167.7,48.9,167.7z"/>
			<path id="neck_x5F_stripes_1_" class="st7" d="M48.9,174.6H35.8c-0.5,0-0.9-0.4-0.9-0.9v-0.8c0-0.5,0.4-0.9,0.9-0.9h13.2
				c0.5,0,0.9,0.4,0.9,0.9v0.8C49.8,174.2,49.4,174.6,48.9,174.6z"/>
		</g>
		<g id="neck_2_">
			<rect id="neck_x5F_1_2_" x="34.7" y="171.4" class="st6" width="14.7" height="17.4"/>
			<path id="neck_x5F_stripes_x5F_3_2_" class="st7" d="M48.6,174.5H35.5c-0.5,0-0.9-0.4-0.9-0.9v-0.8c0-0.5,0.4-0.9,0.9-0.9h13.2
				c0.5,0,0.9,0.4,0.9,0.9v0.8C49.5,174.1,49.1,174.5,48.6,174.5z"/>
			<path id="neck_x5F_stripes2_2_" class="st7" d="M48.8,180.8H35.6c-0.5,0-0.9-0.4-0.9-0.9V179c0-0.5,0.4-0.9,0.9-0.9h13.2
				c0.5,0,0.9,0.4,0.9,0.9v0.8C49.7,180.4,49.3,180.8,48.8,180.8z"/>
			<path id="neck_x5F_stripes_2_" class="st7" d="M48.8,187.6H35.6c-0.5,0-0.9-0.4-0.9-0.9v-0.8c0-0.5,0.4-0.9,0.9-0.9h13.2
				c0.5,0,0.9,0.4,0.9,0.9v0.8C49.7,187.2,49.3,187.6,48.8,187.6z"/>
		</g>
	</g>
	<g id="leg1_1_">
		<g id="neck_4_">
			<rect id="neck_x5F_1_7_" x="64.6" y="158" class="st6" width="14.7" height="17.4"/>
			<path id="neck_x5F_stripes_x5F_3_7_" class="st7" d="M78.5,161.1H65.4c-0.5,0-0.9-0.4-0.9-0.9v-0.8c0-0.5,0.4-0.9,0.9-0.9h13.2
				c0.5,0,0.9,0.4,0.9,0.9v0.8C79.5,160.7,79,161.1,78.5,161.1z"/>
			<path id="neck_x5F_stripes2_7_" class="st7" d="M78.7,167.4H65.5c-0.5,0-0.9-0.4-0.9-0.9l0-0.8c0-0.5,0.4-0.9,0.9-0.9h13.2
				c0.5,0,0.9,0.4,0.9,0.9v0.8C79.6,167,79.2,167.4,78.7,167.4z"/>
			<path id="neck_x5F_stripes_7_" class="st7" d="M78.7,174.3H65.5c-0.5,0-0.9-0.4-0.9-0.9v-0.8c0-0.5,0.4-0.9,0.9-0.9h13.2
				c0.5,0,0.9,0.4,0.9,0.9v0.8C79.6,173.9,79.2,174.3,78.7,174.3z"/>
		</g>
		<g id="neck_3_">
			<rect id="neck_x5F_1_3_" x="64.5" y="171.1" class="st6" width="14.7" height="17.4"/>
			<path id="neck_x5F_stripes_x5F_3_3_" class="st7" d="M78.4,174.2H65.2c-0.5,0-0.9-0.4-0.9-0.9v-0.8c0-0.5,0.4-0.9,0.9-0.9h13.2
				c0.5,0,0.9,0.4,0.9,0.9v0.8C79.3,173.8,78.9,174.2,78.4,174.2z"/>
			<path id="neck_x5F_stripes2_3_" class="st7" d="M78.5,180.5H65.4c-0.5,0-0.9-0.4-0.9-0.9v-0.8c0-0.5,0.4-0.9,0.9-0.9h13.2
				c0.5,0,0.9,0.4,0.9,0.9v0.8C79.5,180.1,79,180.5,78.5,180.5z"/>
			<path id="neck_x5F_stripes_3_" class="st7" d="M78.5,187.4H65.4c-0.5,0-0.9-0.4-0.9-0.9v-0.8c0-0.5,0.4-0.9,0.9-0.9h13.2
				c0.5,0,0.9,0.4,0.9,0.9v0.8C79.5,186.9,79,187.4,78.5,187.4z"/>
		</g>
	</g>
	<polygon id="feet" class="st16" points="35.7,188.7 27.5,201.1 55.2,201.1 48.3,188.7 	"/>
	<polygon id="feet_1_" class="st16" points="65.5,188.5 57.3,200.8 84.9,200.8 78,188.5 	"/>
	<g id="fire_x5F_leg2">
		<path id="fire_x5F_red" class="st15" d="M33.8,202.6v8.1c0,0,4.8,15,7.7,18c0,0,7.4-13,8-16.4v-9.6H33.8z"/>
		<path id="fire_x5F_yellow" class="st17" d="M37.6,203.1v6.9c0,0,1.9,7,3.9,9.9c0,0,3-5,4.2-9.3v-7.5H37.6z"/>
		<path class="st18" d="M38.5,203.1c0,0,1,6,2.6,7.8c0,0,2.4-2.1,3.6-7.8H38.5z"/>
	</g>
	<g id="fire_x5F_leg1">
		<path id="fire_x5F_red_1_" class="st15" d="M64.6,202.6v8.1c0,0,4.8,15,7.7,18c0,0,7.4-13,8-16.4v-9.6H64.6z"/>
		<path id="fire_x5F_yellow_1_" class="st17" d="M68.5,203.1v6.9c0,0,1.9,7,3.9,9.9c0,0,3-5,4.2-9.3v-7.5H68.5z"/>
		<path class="st18" d="M69.4,203.1c0,0,1,6,2.6,7.8c0,0,2.4-2.1,3.6-7.8H69.4z"/>
	</g>
</g>
</svg>
