<?xml version="1.0" encoding="utf-8"?>
<!-- Generator: Adobe Illustrator 23.0.2, SVG Export Plug-In . SVG Version: 6.00 Build 0)  -->
<svg version="1.1" id="Layer_1" xmlns="http://www.w3.org/2000/svg" xmlns:xlink="http://www.w3.org/1999/xlink" x="0px" y="0px"
	 viewBox="0 0 1142.1 736.3" style="enable-background:new 0 0 1142.1 736.3;" xml:space="preserve">
<style type="text/css">
	.st0{fill:#E7D7FF;}
	.st1{fill:#C3A9ED;}
	.st2{fill:#9E6CFF;}
	.st3{fill:#B3EAF2;}
	.st4{fill:#DDDDDD;}
	.st5{fill:#6F4DB2;}
	.st6{fill:#C4C4C4;}
</style>
<path class="st0" d="M700.8,0c-19.5,0-35.3,13.8-35.3,30.7c0,5.8,1.9,11.2,5.1,15.8l-47,50.4H459.2l-46-50.3
	c3.2-4.6,5.1-10.1,5.1-15.9C418.3,13.8,402.5,0,383,0c-19.5,0-35.3,13.8-35.3,30.7c0,16.9,15.8,30.7,35.3,30.7c4,0,7.9-0.6,11.4-1.7
	l35.8,39.2c-19.5,5.4-33.6,21.2-33.6,39.9v20.9h292.1v-20.9c0-19.3-15.1-35.6-35.6-40.4l36.1-38.7c3.6,1.1,7.5,1.7,11.5,1.7
	c19.5,0,35.3-13.8,35.3-30.7C736.1,13.8,720.3,0,700.8,0z"/>
<path class="st1" d="M718.9,138.7v20.9h-48.2v-20.9c0-23.1-21.6-41.8-48.2-41.8h48.2C697.3,96.9,718.9,115.6,718.9,138.7z"/>
<path class="st2" d="M1026.5,618.4H130.4c-34,0-61.5-18.7-61.5-41.8v-389c0-23.1,27.5-41.8,61.5-41.8h896.1
	c34,0,61.5,18.7,61.5,41.8v389C1088,599.7,1060.5,618.4,1026.5,618.4z"/>
<path class="st3" d="M944.8,187.4v375c0,4-4.8,7.2-10.8,7.2H120.5c-6,0-10.8-3.2-10.8-7.2v-375c0-4,4.8-7.2,10.8-7.2H934
	C940,180.1,944.8,183.4,944.8,187.4z"/>
<g>
	<path class="st4" d="M1017.7,284.4h-24.1c-6.6,0-12-4.7-12-10.5v-20.9c0-5.8,5.4-10.5,12-10.5h24.1c6.7,0,12,4.7,12,10.5V274
		C1029.8,279.8,1024.4,284.4,1017.7,284.4z"/>
	<path class="st4" d="M1017.7,368.1h-24.1c-6.6,0-12-4.7-12-10.5v-20.9c0-5.8,5.4-10.5,12-10.5h24.1c6.7,0,12,4.7,12,10.5v20.9
		C1029.8,363.4,1024.4,368.1,1017.7,368.1z"/>
	<path class="st4" d="M1017.7,451.8h-24.1c-6.6,0-12-4.7-12-10.5v-20.9c0-5.8,5.4-10.5,12-10.5h24.1c6.7,0,12,4.7,12,10.5v20.9
		C1029.8,447.1,1024.4,451.8,1017.7,451.8z"/>
	<path class="st4" d="M1017.7,535.4h-24.1c-6.6,0-12-4.7-12-10.5v-20.9c0-5.8,5.4-10.5,12-10.5h24.1c6.7,0,12,4.7,12,10.5V525
		C1029.8,530.7,1024.4,535.4,1017.7,535.4z"/>
</g>
<path class="st5" d="M1099.9,187.5v389c0,23.1-27.5,41.8-61.4,41.8H977c33.9,0,61.4-18.7,61.4-41.8v-389c0-23.1-27.5-41.8-61.4-41.8
	h61.4C1072.4,145.7,1099.9,164.4,1099.9,187.5z"/>
<g id="shadow">
	<path class="st6" d="M1028.8,420.4v20.9c0,5.8-5.4,10.5-12,10.5v-41.8C1023.4,409.9,1028.8,414.6,1028.8,420.4z"/>
	<path class="st6" d="M1028.8,504.1V525c0,5.8-5.4,10.5-12,10.5v-41.8C1023.4,493.6,1028.8,498.3,1028.8,504.1z"/>
	<path class="st6" d="M1028.8,336.7v20.9c0,5.8-5.4,10.5-12,10.5v-41.8C1023.4,326.3,1028.8,331,1028.8,336.7z"/>
	<path class="st6" d="M1028.8,253.1V274c0,5.8-5.4,10.5-12,10.5v-41.8C1023.4,242.6,1028.8,247.3,1028.8,253.1z"/>
</g>
</svg>
